<svg xmlns="http://www.w3.org/2000/svg" width="820" height="320" viewBox="0 0 820 320">
<rect width="100%" height="100%" fill="#ffffff"/>
<text x="70" y="30" font-family="Arial, sans-serif" font-size="18" font-weight="700" fill="#111827">24-row overfit smoke</text>
<line x1="70" y1="58.0" x2="792" y2="58.0" stroke="#e5e7eb"/>
<text x="22" y="62.0" font-family="Arial, sans-serif" font-size="11" fill="#6b7280">1.00</text>
<line x1="70" y1="105.5" x2="792" y2="105.5" stroke="#e5e7eb"/>
<text x="22" y="109.5" font-family="Arial, sans-serif" font-size="11" fill="#6b7280">0.75</text>
<line x1="70" y1="153.0" x2="792" y2="153.0" stroke="#e5e7eb"/>
<text x="22" y="157.0" font-family="Arial, sans-serif" font-size="11" fill="#6b7280">0.50</text>
<line x1="70" y1="200.5" x2="792" y2="200.5" stroke="#e5e7eb"/>
<text x="22" y="204.5" font-family="Arial, sans-serif" font-size="11" fill="#6b7280">0.25</text>
<line x1="70" y1="248.0" x2="792" y2="248.0" stroke="#e5e7eb"/>
<text x="22" y="252.0" font-family="Arial, sans-serif" font-size="11" fill="#6b7280">0.00</text>
<line x1="70" y1="248" x2="792" y2="248" stroke="#374151"/>
<rect x="118.5" y="58.0" width="80" height="190.0" fill="#2563eb" rx="4"/>
<text x="158.5" y="51.0" text-anchor="middle" font-family="Arial, sans-serif" font-size="12" font-weight="700" fill="#111827">1.00</text>
<text x="158.5" y="276" text-anchor="middle" font-family="Arial, sans-serif" font-size="11" fill="#111827">before quality</text>
<rect x="295.5" y="58.0" width="80" height="190.0" fill="#16a34a" rx="4"/>
<text x="335.5" y="51.0" text-anchor="middle" font-family="Arial, sans-serif" font-size="12" font-weight="700" fill="#111827">1.00</text>
<text x="335.5" y="276" text-anchor="middle" font-family="Arial, sans-serif" font-size="11" fill="#111827">after quality</text>
<rect x="472.5" y="58.0" width="80" height="190.0" fill="#7c3aed" rx="4"/>
<text x="512.5" y="51.0" text-anchor="middle" font-family="Arial, sans-serif" font-size="12" font-weight="700" fill="#111827">1.00</text>
<text x="512.5" y="276" text-anchor="middle" font-family="Arial, sans-serif" font-size="11" fill="#111827">exact before</text>
<rect x="649.5" y="58.0" width="80" height="190.0" fill="#f97316" rx="4"/>
<text x="689.5" y="51.0" text-anchor="middle" font-family="Arial, sans-serif" font-size="12" font-weight="700" fill="#111827">1.00</text>
<text x="689.5" y="276" text-anchor="middle" font-family="Arial, sans-serif" font-size="11" fill="#111827">exact after</text>
</svg>