<svg xmlns="http://www.w3.org/2000/svg" width="920" height="360" viewBox="0 0 920 360">
<rect width="100%" height="100%" fill="#ffffff"/>
<text x="72" y="28" font-family="Arial, sans-serif" font-size="18" font-weight="700" fill="#111827">Grid2Op demand-stress timing review / Grid2Op 总需求与线路压力先后关系复盘</text>
<text x="72" y="48" font-family="Arial, sans-serif" font-size="12" fill="#6b7280">per-variable min-max normalized raw compact values; x-axis is local time step</text>
<line x1="72" y1="56.0" x2="892" y2="56.0" stroke="#e5e7eb" stroke-width="1"/>
<line x1="72" y1="114.0" x2="892" y2="114.0" stroke="#e5e7eb" stroke-width="1"/>
<line x1="72" y1="172.0" x2="892" y2="172.0" stroke="#e5e7eb" stroke-width="1"/>
<line x1="72" y1="230.0" x2="892" y2="230.0" stroke="#e5e7eb" stroke-width="1"/>
<line x1="72" y1="288.0" x2="892" y2="288.0" stroke="#e5e7eb" stroke-width="1"/>
<line x1="72" y1="56" x2="72" y2="288" stroke="#374151" stroke-width="1.2"/>
<line x1="72" y1="288" x2="892" y2="288" stroke="#374151" stroke-width="1.2"/>
<polyline points="72.0,156.3 74.4,140.1 76.8,129.5 79.2,128.0 81.6,129.9 84.0,140.0 86.4,144.3 88.8,161.3 91.2,168.2 93.6,179.2 96.0,190.8 98.5,198.3 100.9,200.3 103.3,216.0 105.7,218.4 108.1,217.5 110.5,215.1 112.9,194.7 115.3,183.9 117.7,185.8 120.1,191.9 122.5,198.3 124.9,194.7 127.3,202.8 129.7,220.6 132.1,232.8 134.5,238.2 136.9,241.2 139.3,239.0 141.7,245.3 144.1,247.0 146.5,247.9 149.0,253.0 151.4,258.1 153.8,264.4 156.2,268.4 158.6,267.0 161.0,273.8 163.4,272.6 165.8,276.9 168.2,270.2 170.6,275.0 173.0,270.8 175.4,257.3 177.8,250.7 180.2,245.0 182.6,232.3 185.0,211.8 187.4,190.2 189.8,183.5 192.2,164.8 194.6,150.8 197.0,133.3 199.4,136.7 201.9,138.2 204.3,135.7 206.7,140.2 209.1,147.9 211.5,149.6 213.9,149.6 216.3,159.1 218.7,164.9 221.1,170.7 223.5,172.3 225.9,175.1 228.3,171.8 230.7,176.5 233.1,174.7 235.5,162.5 237.9,163.6 240.3,163.3 242.7,160.8 245.1,166.7 247.5,162.4 249.9,158.8 252.4,165.1 254.8,165.4 257.2,169.2 259.6,168.0 262.0,160.9 264.4,162.3 266.8,158.1 269.2,165.9 271.6,166.5 274.0,159.4 276.4,161.4 278.8,156.5 281.2,165.7 283.6,163.1 286.0,161.3 288.4,168.2 290.8,168.5 293.2,157.8 295.6,154.7 298.0,142.0 300.4,123.4 302.9,110.2 305.3,78.0 307.7,69.6 310.1,56.0 312.5,58.7 314.9,64.9 317.3,77.8 319.7,84.4 322.1,101.4 324.5,116.0 326.9,124.8 329.3,141.7 331.7,154.8 334.1,162.0 336.5,167.5 338.9,165.1 341.3,151.7 343.7,134.7 346.1,128.0 348.5,128.2 350.9,136.7 353.3,134.3 355.8,129.1 358.2,137.9 360.6,167.0 363.0,176.2 365.4,194.3 367.8,190.0 370.2,196.7 372.6,205.5 375.0,211.3 377.4,205.2 379.8,211.3 382.2,223.6 384.6,233.8 387.0,241.0 389.4,239.5 391.8,246.7 394.2,249.1 396.6,250.6 399.0,249.1 401.4,243.2 403.8,244.9 406.3,237.2 408.7,224.7 411.1,216.9 413.5,205.0 415.9,179.9 418.3,167.0 420.7,149.0 423.1,131.6 425.5,117.5 427.9,100.6 430.3,97.7 432.7,91.2 435.1,91.9 437.5,83.7 439.9,94.0 442.3,85.3 444.7,92.5 447.1,91.9 449.5,101.3 451.9,102.8 454.3,102.2 456.8,107.2 459.2,115.8 461.6,115.7 464.0,109.1 466.4,116.3 468.8,114.2 471.2,112.7 473.6,119.9 476.0,126.5 478.4,127.4 480.8,134.4 483.2,140.0 485.6,144.2 488.0,137.8 490.4,140.0 492.8,133.8 495.2,142.8 497.6,145.7 500.0,148.9 502.4,147.8 504.8,152.7 507.2,148.2 509.7,148.1 512.1,153.6 514.5,157.5 516.9,159.6 519.3,159.6 521.7,161.3 524.1,152.0 526.5,154.1 528.9,145.3 531.3,128.3 533.7,113.6 536.1,96.0 538.5,81.2 540.9,83.1 543.3,79.5 545.7,89.5 548.1,98.8 550.5,112.7 552.9,124.1 555.3,136.8 557.7,144.7 560.2,155.4 562.6,161.7 565.0,175.2 567.4,181.7 569.8,182.1 572.2,174.2 574.6,165.5 577.0,157.1 579.4,163.9 581.8,162.9 584.2,172.2 586.6,169.4 589.0,183.9 591.4,184.9 593.8,207.4 596.2,210.7 598.6,203.2 601.0,207.7 603.4,207.7 605.8,211.7 608.2,209.2 610.7,219.0 613.1,231.7 615.5,237.5 617.9,244.3 620.3,246.1 622.7,254.3 625.1,255.4 627.5,256.9 629.9,258.1 632.3,262.5 634.7,252.2 637.1,243.9 639.5,235.2 641.9,223.5 644.3,218.7 646.7,193.0 649.1,179.6 651.5,161.2 653.9,151.5 656.3,139.1 658.7,129.0 661.1,129.0 663.6,130.5 666.0,135.6 668.4,141.0 670.8,144.4 673.2,151.4 675.6,157.6 678.0,157.3 680.4,165.2 682.8,165.9 685.2,162.9 687.6,170.0 690.0,179.6 692.4,179.3 694.8,176.4 697.2,181.7 699.6,175.6 702.0,181.7 704.4,183.2 706.8,189.6 709.2,184.7 711.6,190.8 714.1,194.1 716.5,198.7 718.9,195.9 721.3,200.9 723.7,199.3 726.1,205.3 728.5,210.2 730.9,209.7 733.3,211.2 735.7,208.3 738.1,203.0 740.5,208.6 742.9,199.0 745.3,208.2 747.7,206.7 750.1,210.8 752.5,208.3 754.9,204.4 757.3,198.8 759.7,188.5 762.1,169.6 764.6,162.7 767.0,143.5 769.4,141.8 771.8,145.8 774.2,143.0 776.6,152.4 779.0,160.3 781.4,166.3 783.8,176.9 786.2,189.4 788.6,200.8 791.0,207.1 793.4,213.1 795.8,212.0 798.2,223.6 800.6,223.6 803.0,205.7 805.4,196.8 807.8,193.0 810.2,192.7 812.6,200.8 815.0,202.5 817.5,206.6 819.9,216.9 822.3,226.0 824.7,240.2 827.1,246.8 829.5,240.6 831.9,242.4 834.3,244.2 836.7,248.5 839.1,247.8 841.5,258.1 843.9,261.7 846.3,271.9 848.7,276.7 851.1,278.1 853.5,281.8 855.9,288.0 858.3,287.7 860.7,285.2 863.1,286.7 865.5,281.8 868.0,266.5 870.4,263.0 872.8,249.9 875.2,242.7 877.6,223.0 880.0,209.9 882.4,197.1 884.8,189.4 887.2,180.2 889.6,171.9 892.0,161.5" fill="none" stroke="#2563eb" stroke-width="2.0" stroke-linejoin="round" stroke-linecap="round"/>
<line x1="72" y1="312" x2="96" y2="312" stroke="#2563eb" stroke-width="3"/>
<text x="102" y="316" font-family="Arial, sans-serif" font-size="12" fill="#111827">x0 最大线路负载压力</text>
<polyline points="72.0,98.7 74.4,78.7 76.8,68.0 79.2,69.1 81.6,77.0 84.0,91.1 86.4,106.6 88.8,123.5 91.2,133.1 93.6,148.9 96.0,159.3 98.5,173.7 100.9,185.4 103.3,199.5 105.7,202.6 108.1,201.6 110.5,201.3 112.9,173.4 115.3,158.6 117.7,164.4 120.1,179.9 122.5,188.9 124.9,175.4 127.3,187.8 129.7,205.4 132.1,220.5 134.5,231.2 136.9,231.9 139.3,232.2 141.7,231.9 144.1,235.3 146.5,242.2 149.0,250.1 151.4,254.6 153.8,264.2 156.2,269.8 158.6,278.0 161.0,284.2 163.4,286.6 165.8,286.6 168.2,282.5 170.6,288.0 173.0,279.1 175.4,264.2 177.8,250.1 180.2,246.4 182.6,230.5 185.0,207.5 187.4,176.5 189.8,164.4 192.2,142.4 194.6,124.5 197.0,107.3 199.4,95.2 201.9,94.9 204.3,94.2 206.7,88.0 209.1,86.3 211.5,84.2 213.9,83.9 216.3,84.2 218.7,81.8 221.1,82.2 223.5,87.3 225.9,87.3 228.3,92.1 230.7,92.5 233.1,94.2 235.5,89.7 237.9,87.0 240.3,93.9 242.7,91.5 245.1,103.5 247.5,106.6 249.9,99.4 252.4,106.6 254.8,114.2 257.2,124.2 259.6,125.9 262.0,129.0 264.4,137.2 266.8,137.6 269.2,152.7 271.6,157.5 274.0,162.0 276.4,166.8 278.8,162.0 281.2,166.5 283.6,164.1 286.0,165.8 288.4,164.8 290.8,160.0 293.2,149.6 295.6,139.0 298.0,117.3 300.4,98.0 302.9,88.0 305.3,64.9 307.7,62.9 310.1,61.5 312.5,65.3 314.9,77.3 317.3,92.5 319.7,99.0 322.1,116.6 324.5,128.6 326.9,137.9 329.3,152.0 331.7,169.2 334.1,174.8 336.5,186.5 338.9,185.8 341.3,176.1 343.7,161.0 346.1,150.7 348.5,147.9 350.9,162.7 353.3,157.9 355.8,158.2 358.2,167.2 360.6,191.3 363.0,202.6 365.4,213.6 367.8,211.2 370.2,214.7 372.6,215.4 375.0,226.7 377.4,221.6 379.8,228.8 382.2,235.3 384.6,249.8 387.0,261.5 389.4,262.5 391.8,271.1 394.2,274.9 396.6,273.5 399.0,272.2 401.4,265.6 403.8,261.8 406.3,252.2 408.7,233.3 411.1,227.4 413.5,213.3 415.9,186.8 418.3,171.0 420.7,152.4 423.1,125.2 425.5,118.0 427.9,88.7 430.3,85.3 432.7,77.3 435.1,77.3 437.5,67.4 439.9,79.8 442.3,69.4 444.7,74.2 447.1,73.2 449.5,72.9 451.9,76.7 454.3,74.2 456.8,78.4 459.2,78.7 461.6,84.6 464.0,79.4 466.4,82.5 468.8,76.3 471.2,85.3 473.6,81.1 476.0,90.8 478.4,88.0 480.8,101.8 483.2,106.9 485.6,110.0 488.0,112.5 490.4,113.1 492.8,114.5 495.2,126.2 497.6,139.3 500.0,141.4 502.4,146.2 504.8,157.5 507.2,160.6 509.7,155.1 512.1,162.7 514.5,164.8 516.9,163.7 519.3,163.4 521.7,155.5 524.1,146.2 526.5,142.1 528.9,121.1 531.3,105.2 533.7,80.4 536.1,70.1 538.5,56.0 540.9,69.8 543.3,63.6 545.7,78.4 548.1,81.1 550.5,99.4 552.9,119.3 555.3,124.8 557.7,141.7 560.2,153.8 562.6,156.9 565.0,178.5 567.4,185.4 569.8,179.9 572.2,168.2 574.6,157.5 577.0,140.7 579.4,155.1 581.8,154.8 584.2,158.2 586.6,155.1 589.0,174.4 591.4,174.4 593.8,204.4 596.2,210.2 598.6,210.2 601.0,208.8 603.4,212.3 605.8,216.7 608.2,216.1 610.7,218.8 613.1,235.0 615.5,247.7 617.9,255.0 620.3,250.5 622.7,258.1 625.1,265.6 627.5,261.2 629.9,262.5 632.3,268.4 634.7,256.7 637.1,247.4 639.5,237.4 641.9,222.6 644.3,209.2 646.7,184.7 649.1,166.1 651.5,135.9 653.9,123.8 656.3,98.7 658.7,87.0 661.1,75.6 663.6,77.0 666.0,78.4 668.4,73.2 670.8,80.1 673.2,72.5 675.6,75.6 678.0,71.5 680.4,81.5 682.8,77.7 685.2,76.7 687.6,79.1 690.0,94.2 692.4,85.3 694.8,90.1 697.2,98.7 699.6,87.3 702.0,94.9 704.4,101.1 706.8,107.3 709.2,104.9 711.6,104.9 714.1,114.5 716.5,123.8 718.9,127.6 721.3,130.0 723.7,129.3 726.1,140.7 728.5,148.6 730.9,157.9 733.3,167.5 735.7,167.9 738.1,163.7 740.5,171.3 742.9,164.8 745.3,168.9 747.7,172.0 750.1,177.2 752.5,163.7 754.9,159.6 757.3,142.7 759.7,123.1 762.1,104.2 764.6,85.6 767.0,67.4 769.4,65.6 771.8,70.1 774.2,75.3 776.6,82.8 779.0,93.9 781.4,103.8 783.8,118.3 786.2,136.9 788.6,147.9 791.0,157.2 793.4,168.2 795.8,173.0 798.2,189.2 800.6,187.8 803.0,167.2 805.4,155.1 807.8,146.9 810.2,153.4 812.6,158.9 815.0,158.2 817.5,162.7 819.9,173.4 822.3,178.9 824.7,209.5 827.1,219.2 829.5,214.7 831.9,207.5 834.3,215.4 836.7,215.7 839.1,225.7 841.5,227.8 843.9,237.7 846.3,252.5 848.7,252.5 851.1,259.4 853.5,262.5 855.9,263.6 858.3,269.8 860.7,269.1 863.1,268.4 865.5,262.9 868.0,249.1 870.4,245.0 872.8,222.9 875.2,210.2 877.6,184.0 880.0,164.8 882.4,135.2 884.8,126.6 887.2,102.1 889.6,99.0 892.0,76.7" fill="none" stroke="#dc2626" stroke-width="2.0" stroke-linejoin="round" stroke-linecap="round"/>
<line x1="262" y1="329" x2="286" y2="329" stroke="#dc2626" stroke-width="3"/>
<text x="292" y="333" font-family="Arial, sans-serif" font-size="12" fill="#111827">x1 总需求</text>
<polyline points="72.0,136.7 74.4,106.2 76.8,92.6 79.2,89.8 81.6,98.3 84.0,108.7 86.4,127.6 88.8,147.3 91.2,152.9 93.6,167.6 96.0,177.6 98.5,190.7 100.9,199.0 103.3,208.0 105.7,216.3 108.1,209.6 110.5,210.7 112.9,186.7 115.3,171.7 117.7,172.3 120.1,189.9 122.5,200.0 124.9,189.8 127.3,205.3 129.7,216.6 132.1,229.7 134.5,237.6 136.9,242.4 139.3,240.6 141.7,241.9 144.1,240.8 146.5,248.9 149.0,257.5 151.4,257.9 153.8,261.8 156.2,274.8 158.6,275.5 161.0,281.0 163.4,280.9 165.8,281.2 168.2,276.4 170.6,283.4 173.0,279.3 175.4,261.5 177.8,251.0 180.2,252.3 182.6,232.7 185.0,214.1 187.4,188.4 189.8,182.7 192.2,155.3 194.6,138.7 197.0,121.2 199.4,121.2 201.9,123.1 204.3,130.3 206.7,125.8 209.1,130.9 211.5,131.6 213.9,140.2 216.3,155.2 218.7,150.7 221.1,151.7 223.5,156.4 225.9,159.6 228.3,159.4 230.7,159.7 233.1,165.8 235.5,159.2 237.9,157.0 240.3,159.1 242.7,158.7 245.1,164.3 247.5,163.4 249.9,154.4 252.4,158.8 254.8,167.0 257.2,178.4 259.6,171.2 262.0,165.0 264.4,166.1 266.8,162.9 269.2,173.7 271.6,174.5 274.0,170.9 276.4,173.7 278.8,164.1 281.2,172.9 283.6,171.8 286.0,165.8 288.4,173.1 290.8,172.0 293.2,158.1 295.6,153.9 298.0,132.3 300.4,110.8 302.9,100.1 305.3,69.9 307.7,70.5 310.1,59.1 312.5,69.3 314.9,79.2 317.3,96.0 319.7,95.7 322.1,119.1 324.5,129.4 326.9,128.8 329.3,159.8 331.7,171.6 334.1,176.8 336.5,187.8 338.9,182.9 341.3,174.9 343.7,157.6 346.1,153.7 348.5,145.7 350.9,164.3 353.3,158.5 355.8,157.6 358.2,162.9 360.6,188.0 363.0,192.4 365.4,212.8 367.8,205.0 370.2,216.0 372.6,214.7 375.0,229.8 377.4,216.5 379.8,225.9 382.2,231.5 384.6,248.7 387.0,258.3 389.4,258.0 391.8,264.7 394.2,266.9 396.6,266.0 399.0,262.8 401.4,251.3 403.8,256.8 406.3,246.2 408.7,231.1 411.1,220.2 413.5,213.8 415.9,189.3 418.3,177.6 420.7,155.9 423.1,132.2 425.5,125.6 427.9,93.6 430.3,99.5 432.7,85.8 435.1,94.0 437.5,83.4 439.9,99.0 442.3,87.9 444.7,101.0 447.1,100.5 449.5,104.2 451.9,106.2 454.3,110.8 456.8,113.9 459.2,126.0 461.6,126.8 464.0,118.8 466.4,121.9 468.8,112.4 471.2,120.0 473.6,122.2 476.0,133.2 478.4,131.4 480.8,145.3 483.2,154.4 485.6,155.1 488.0,151.1 490.4,143.9 492.8,147.7 495.2,150.5 497.6,161.0 500.0,157.4 502.4,156.6 504.8,163.6 507.2,159.2 509.7,150.8 512.1,162.9 514.5,164.3 516.9,166.8 519.3,162.4 521.7,154.5 524.1,142.2 526.5,146.6 528.9,132.1 531.3,112.0 533.7,84.9 536.1,67.8 538.5,57.5 540.9,74.3 543.3,56.0 545.7,78.0 548.1,74.7 550.5,100.4 552.9,122.7 555.3,120.8 557.7,142.4 560.2,156.4 562.6,158.9 565.0,174.4 567.4,184.8 569.8,183.3 572.2,174.1 574.6,162.2 577.0,146.3 579.4,153.7 581.8,160.5 584.2,165.2 586.6,162.3 589.0,184.9 591.4,180.2 593.8,206.2 596.2,213.1 598.6,204.9 601.0,212.5 603.4,215.1 605.8,218.0 608.2,216.4 610.7,224.5 613.1,235.4 615.5,252.5 617.9,254.9 620.3,251.0 622.7,256.5 625.1,259.9 627.5,259.5 629.9,260.1 632.3,263.3 634.7,253.9 637.1,242.1 639.5,240.7 641.9,222.7 644.3,218.8 646.7,187.4 649.1,175.6 651.5,143.0 653.9,136.2 656.3,110.7 658.7,106.4 661.1,94.8 663.6,97.1 666.0,117.5 668.4,104.5 670.8,119.3 673.2,115.8 675.6,130.0 678.0,128.7 680.4,141.4 682.8,139.3 685.2,136.7 687.6,139.2 690.0,157.5 692.4,152.8 694.8,156.1 697.2,165.8 699.6,145.2 702.0,157.8 704.4,168.6 706.8,176.2 709.2,171.2 711.6,175.1 714.1,182.8 716.5,188.0 718.9,196.1 721.3,190.8 723.7,185.6 726.1,191.1 728.5,190.7 730.9,196.0 733.3,205.3 735.7,199.7 738.1,188.1 740.5,197.9 742.9,183.3 745.3,194.2 747.7,194.3 750.1,198.7 752.5,192.5 754.9,189.0 757.3,170.6 759.7,156.9 762.1,130.9 764.6,122.6 767.0,100.4 769.4,97.2 771.8,107.1 774.2,104.8 776.6,115.5 779.0,121.2 781.4,133.0 783.8,146.2 786.2,159.1 788.6,177.8 791.0,183.3 793.4,191.6 795.8,193.2 798.2,212.5 800.6,208.6 803.0,182.9 805.4,174.8 807.8,173.5 810.2,174.8 812.6,181.8 815.0,185.2 817.5,188.5 819.9,194.1 822.3,205.1 824.7,233.4 827.1,243.5 829.5,240.4 831.9,234.6 834.3,240.3 836.7,247.1 839.1,252.8 841.5,252.5 843.9,260.3 846.3,272.4 848.7,273.0 851.1,269.7 853.5,277.0 855.9,280.2 858.3,282.9 860.7,283.5 863.1,286.0 865.5,288.0 868.0,272.5 870.4,272.8 872.8,254.8 875.2,245.8 877.6,217.4 880.0,200.7 882.4,168.1 884.8,164.6 887.2,138.1 889.6,147.9 892.0,120.1" fill="none" stroke="#16a34a" stroke-width="2.0" stroke-linejoin="round" stroke-linecap="round"/>
<line x1="452" y1="346" x2="476" y2="346" stroke="#16a34a" stroke-width="3"/>
<text x="482" y="350" font-family="Arial, sans-serif" font-size="12" fill="#111827">x2 发电裕度</text>
<text x="72" y="344" font-family="Arial, sans-serif" font-size="11" fill="#6b7280">n=1024; plotted n=342</text>
</svg>