<svg xmlns="http://www.w3.org/2000/svg" width="920" height="360" viewBox="0 0 920 360">
<rect width="100%" height="100%" fill="#ffffff"/>
<text x="72" y="28" font-family="Arial, sans-serif" font-size="18" font-weight="700" fill="#111827">Grid2Op controlled line-disconnection risk</text>
<text x="72" y="49" font-family="Arial, sans-serif" font-size="12" fill="#6b7280">scenario-first controlled trace; per-variable min-max normalized for display</text>
<line x1="72" y1="58.0" x2="892" y2="58.0" stroke="#e5e7eb" stroke-width="1"/>
<line x1="72" y1="114.5" x2="892" y2="114.5" stroke="#e5e7eb" stroke-width="1"/>
<line x1="72" y1="171.0" x2="892" y2="171.0" stroke="#e5e7eb" stroke-width="1"/>
<line x1="72" y1="227.5" x2="892" y2="227.5" stroke="#e5e7eb" stroke-width="1"/>
<line x1="72" y1="284.0" x2="892" y2="284.0" stroke="#e5e7eb" stroke-width="1"/>
<line x1="72" y1="58" x2="72" y2="284" stroke="#374151" stroke-width="1.2"/>
<line x1="72" y1="284" x2="892" y2="284" stroke="#374151" stroke-width="1.2"/>
<polyline points="72.0,58.0 75.2,59.2 78.4,60.4 81.6,61.7 84.9,62.9 88.1,64.2 91.3,65.6 94.5,66.9 97.7,68.2 100.9,69.6 104.2,71.0 107.4,72.4 110.6,73.9 113.8,75.3 117.0,76.8 120.2,78.3 123.5,79.9 126.7,81.4 129.9,83.0 133.1,84.6 136.3,86.2 139.5,87.8 142.7,89.5 146.0,91.2 149.2,92.9 152.4,94.6 155.6,96.3 158.8,98.1 162.0,99.9 165.3,101.7 168.5,103.5 171.7,105.3 174.9,107.2 178.1,109.0 181.3,110.9 184.5,112.8 187.8,114.8 191.0,116.7 194.2,118.7 197.4,120.7 200.6,122.7 203.8,124.7 207.1,126.7 210.3,128.7 213.5,130.8 216.7,132.9 219.9,134.9 223.1,137.0 226.4,139.1 229.6,141.3 232.8,143.4 236.0,145.5 239.2,147.7 242.4,149.8 245.6,152.0 248.9,154.2 252.1,156.3 255.3,158.5 258.5,160.7 261.7,162.9 264.9,165.1 268.2,167.3 271.4,169.6 274.6,171.8 277.8,174.0 281.0,176.2 284.2,178.4 287.5,180.6 290.7,182.8 293.9,185.1 297.1,187.3 300.3,189.5 303.5,191.7 306.7,193.9 310.0,196.0 313.2,198.2 316.4,200.4 319.6,202.5 322.8,204.7 326.0,206.8 329.3,209.0 332.5,211.1 335.7,213.2 338.9,215.3 342.1,217.3 345.3,219.4 348.5,221.4 351.8,223.5 355.0,225.5 358.2,227.4 361.4,229.4 364.6,231.3 367.8,233.3 371.1,235.2 374.3,237.0 377.5,238.9 380.7,240.7 383.9,242.5 387.1,244.2 390.4,246.0 393.6,247.7 396.8,249.4 400.0,251.0 403.2,252.6 406.4,254.2 409.6,255.7 412.9,257.2 416.1,258.7 419.3,260.2 422.5,261.6 425.7,262.9 428.9,264.3 432.2,265.6 435.4,266.8 438.6,268.0 441.8,269.2 445.0,270.3 448.2,271.4 451.5,272.5 454.7,273.5 457.9,274.4 461.1,275.3 464.3,276.2 467.5,277.1 470.7,277.8 474.0,278.6 477.2,279.3 480.4,279.9 483.6,280.5 486.8,281.1 490.0,281.6 493.3,282.0 496.5,282.4 499.7,282.8 502.9,283.1 506.1,283.4 509.3,283.6 512.5,283.8 515.8,283.9 519.0,284.0 522.2,284.0 525.4,284.0 528.6,283.9 531.8,283.8 535.1,283.6 538.3,283.4 541.5,283.1 544.7,282.8 547.9,282.4 551.1,282.0 554.4,281.6 557.6,281.1 560.8,280.5 564.0,279.9 567.2,279.3 570.4,278.6 573.6,277.8 576.9,277.1 580.1,276.2 583.3,275.3 586.5,274.4 589.7,273.5 592.9,272.5 596.2,271.4 599.4,270.3 602.6,269.2 605.8,268.0 609.0,266.8 612.2,265.6 615.5,264.3 618.7,262.9 621.9,261.6 625.1,260.2 628.3,258.7 631.5,257.2 634.7,255.7 638.0,254.2 641.2,252.6 644.4,251.0 647.6,249.4 650.8,247.7 654.0,246.0 657.3,244.2 660.5,242.5 663.7,240.7 666.9,238.9 670.1,237.0 673.3,235.2 676.5,233.3 679.8,231.3 683.0,229.4 686.2,227.4 689.4,225.5 692.6,223.5 695.8,221.4 699.1,219.4 702.3,217.3 705.5,215.3 708.7,213.2 711.9,211.1 715.1,209.0 718.4,206.8 721.6,204.7 724.8,202.5 728.0,200.4 731.2,198.2 734.4,196.0 737.6,193.9 740.9,191.7 744.1,189.5 747.3,187.3 750.5,185.1 753.7,182.8 756.9,180.6 760.2,178.4 763.4,176.2 766.6,174.0 769.8,171.8 773.0,169.6 776.2,167.3 779.5,165.1 782.7,162.9 785.9,160.7 789.1,158.5 792.3,156.3 795.5,154.2 798.7,152.0 802.0,149.8 805.2,147.7 808.4,145.5 811.6,143.4 814.8,141.3 818.0,139.1 821.3,137.0 824.5,134.9 827.7,132.9 830.9,130.8 834.1,128.7 837.3,126.7 840.5,124.7 843.8,122.7 847.0,120.7 850.2,118.7 853.4,116.7 856.6,114.8 859.8,112.8 863.1,110.9 866.3,109.0 869.5,107.2 872.7,105.3 875.9,103.5 879.1,101.7 882.4,99.9 885.6,98.1 888.8,96.3 892.0,94.6" fill="none" stroke="#2563eb" stroke-width="2.0" stroke-linejoin="round" stroke-linecap="round"/>
<line x1="72" y1="307" x2="96" y2="307" stroke="#2563eb" stroke-width="3"/>
<text x="103" y="311" font-family="Arial, sans-serif" font-size="12" fill="#111827">x0 最大线路负载压力</text>
<polyline points="72.0,104.4 75.2,107.4 78.4,107.3 81.6,64.9 84.9,58.0 88.1,98.0 91.3,86.3 94.5,93.6 97.7,101.0 100.9,108.4 104.2,92.3 107.4,106.5 110.6,70.8 113.8,120.6 117.0,120.1 120.2,141.8 123.5,145.8 126.7,147.0 129.9,163.0 133.1,165.8 136.3,155.8 139.5,186.2 142.7,181.3 146.0,192.8 149.2,182.1 152.4,173.4 155.6,164.1 158.8,183.7 162.0,197.4 165.3,205.2 168.5,188.5 171.7,179.8 174.9,187.5 178.1,215.7 181.3,195.7 184.5,214.0 187.8,189.2 191.0,197.4 194.2,217.6 197.4,221.1 200.6,229.7 203.8,215.0 207.1,261.1 210.3,226.4 213.5,236.5 216.7,250.6 219.9,284.0 223.1,254.9 226.4,250.2 229.6,245.7 232.8,240.9 236.0,240.9 239.2,232.0 242.4,222.5 245.6,228.0 248.9,210.5 252.1,220.4 255.3,176.6 258.5,186.5 261.7,175.4 264.9,176.3 268.2,161.4 271.4,134.6 274.6,147.5 277.8,151.8 281.0,121.9 284.2,120.6 287.5,116.4 290.7,140.6 293.9,99.2 297.1,104.9 300.3,107.9 303.5,103.7 306.7,117.8 310.0,103.3 313.2,141.3 316.4,114.4 319.6,112.1 322.8,130.9 326.0,137.6 329.3,141.9 332.5,135.8 335.7,121.4 338.9,141.3 342.1,132.1 345.3,134.5 348.5,134.0 351.8,122.8 355.0,144.0 358.2,147.0 361.4,134.5 364.6,117.2 367.8,132.6 371.1,144.2 374.3,138.8 377.5,126.8 380.7,164.1 383.9,157.0 387.1,178.1 390.4,159.8 393.6,167.5 396.8,206.2 400.0,202.2 403.2,197.1 406.4,213.2 409.6,176.8 412.9,186.7 416.1,229.4 419.3,244.3 422.5,240.2 425.7,251.6 428.9,267.1 432.2,249.7 435.4,234.8 438.6,267.3 441.8,250.6 445.0,233.1 448.2,230.8 451.5,267.5 454.7,226.0 457.9,227.4 461.1,221.5 464.3,215.3 467.5,213.1 470.7,220.6 474.0,178.7 477.2,188.1 480.4,198.0 483.6,171.9 486.8,170.1 490.0,137.9 493.3,149.9 496.5,137.1 499.7,143.3 502.9,152.9 506.1,138.0 509.3,127.8 512.5,136.8 515.8,147.8 519.0,145.0 522.2,141.8 525.4,153.1 528.6,140.2 531.8,123.3 535.1,140.6 538.3,158.0 541.5,135.6 544.7,141.6 547.9,148.5 551.1,122.0 554.4,127.8 557.6,130.6 560.8,94.7 564.0,75.7 567.2,122.9 570.4,94.9 573.6,95.5 576.9,92.8 580.1,108.4 583.3,100.5 586.5,87.5 589.7,136.9 592.9,113.2 596.2,122.9 599.4,134.4 602.6,153.8 605.8,139.9 609.0,154.2 612.2,188.0 615.5,188.4 618.7,177.7 621.9,205.1 625.1,215.8 628.3,219.7 631.5,248.5 634.7,243.5 638.0,233.9 641.2,221.6 644.4,246.4 647.6,235.7 650.8,249.0 654.0,249.8 657.3,234.6 660.5,226.6 663.7,230.6 666.9,229.0 670.1,220.9 673.3,229.8 676.5,224.1 679.8,218.6 683.0,197.6 686.2,202.5 689.4,214.3 692.6,186.4 695.8,212.4 699.1,205.0 702.3,205.9 705.5,195.8 708.7,198.1 711.9,206.2 715.1,182.4 718.4,194.7 721.6,194.2 724.8,184.7 728.0,186.5 731.2,215.6 734.4,204.4 737.6,189.0 740.9,166.7 744.1,155.7 747.3,157.9 750.5,155.5 753.7,134.1 756.9,120.2 760.2,130.0 763.4,118.7 766.6,101.3 769.8,90.7 773.0,109.3 776.2,84.6 779.5,81.1 782.7,99.5 785.9,101.7 789.1,79.3 792.3,104.2 795.5,102.7 798.7,93.9 802.0,101.3 805.2,116.4 808.4,108.1 811.6,135.0 814.8,136.2 818.0,156.3 821.3,152.9 824.5,168.3 827.7,164.9 830.9,181.9 834.1,163.1 837.3,174.9 840.5,176.8 843.8,197.5 847.0,188.5 850.2,171.4 853.4,214.9 856.6,201.0 859.8,201.2 863.1,204.1 866.3,203.5 869.5,186.1 872.7,209.5 875.9,203.7 879.1,195.3 882.4,193.0 885.6,209.4 888.8,212.7 892.0,208.0" fill="none" stroke="#dc2626" stroke-width="2.0" stroke-linejoin="round" stroke-linecap="round"/>
<line x1="462" y1="307" x2="486" y2="307" stroke="#dc2626" stroke-width="3"/>
<text x="493" y="311" font-family="Arial, sans-serif" font-size="12" fill="#111827">x1 总需求</text>
<polyline points="72.0,171.0 75.2,171.7 78.4,186.0 81.6,213.4 84.9,178.7 88.1,188.2 91.3,192.4 94.5,215.7 97.7,225.7 100.9,237.1 104.2,243.8 107.4,264.9 110.6,224.2 113.8,266.1 117.0,255.6 120.2,228.1 123.5,246.5 126.7,274.9 129.9,284.0 133.1,265.0 136.3,272.9 139.5,272.6 142.7,253.0 146.0,253.4 149.2,259.3 152.4,255.2 155.6,263.5 158.8,237.3 162.0,245.0 165.3,231.4 168.5,212.3 171.7,202.7 174.9,208.4 178.1,180.8 181.3,189.0 184.5,189.7 187.8,151.5 191.0,155.3 194.2,170.5 197.4,165.7 200.6,160.4 203.8,127.1 207.1,148.1 210.3,168.9 213.5,150.4 216.7,136.8 219.9,118.8 223.1,133.9 226.4,125.8 229.6,125.3 232.8,150.3 236.0,134.6 239.2,120.0 242.4,148.7 245.6,110.4 248.9,122.4 252.1,159.7 255.3,133.3 258.5,127.2 261.7,119.7 264.9,132.2 268.2,143.9 271.4,133.5 274.6,115.7 277.8,99.4 281.0,120.5 284.2,111.1 287.5,94.5 290.7,123.0 293.9,94.1 297.1,106.0 300.3,121.5 303.5,118.7 306.7,108.6 310.0,89.6 313.2,94.4 316.4,102.0 319.6,83.3 322.8,95.6 326.0,99.9 329.3,102.0 332.5,128.8 335.7,105.9 338.9,141.4 342.1,127.8 345.3,132.8 348.5,126.9 351.8,148.7 355.0,180.9 358.2,147.8 361.4,173.9 364.6,203.2 367.8,173.3 371.1,223.1 374.3,220.1 377.5,206.2 380.7,245.0 383.9,243.3 387.1,226.5 390.4,233.0 393.6,250.6 396.8,256.2 400.0,216.9 403.2,242.2 406.4,240.8 409.6,266.4 412.9,234.9 416.1,280.4 419.3,253.6 422.5,262.6 425.7,240.3 428.9,278.8 432.2,241.1 435.4,201.5 438.6,230.0 441.8,215.1 445.0,204.8 448.2,238.6 451.5,202.2 454.7,227.6 457.9,227.6 461.1,212.5 464.3,212.5 467.5,198.1 470.7,202.1 474.0,200.4 477.2,196.1 480.4,218.7 483.6,211.7 486.8,207.2 490.0,187.4 493.3,208.6 496.5,214.0 499.7,190.5 502.9,196.7 506.1,202.5 509.3,194.9 512.5,186.1 515.8,177.2 519.0,183.7 522.2,177.8 525.4,184.3 528.6,163.9 531.8,163.0 535.1,175.6 538.3,138.3 541.5,170.6 544.7,133.8 547.9,129.1 551.1,130.9 554.4,121.5 557.6,137.6 560.8,135.5 564.0,92.0 567.2,92.7 570.4,95.1 573.6,101.8 576.9,97.3 580.1,63.2 583.3,66.0 586.5,75.3 589.7,63.9 592.9,58.0 596.2,66.4 599.4,63.9 602.6,99.4 605.8,93.2 609.0,82.3 612.2,116.6 615.5,100.9 618.7,124.7 621.9,140.8 625.1,94.1 628.3,111.0 631.5,115.4 634.7,138.5 638.0,138.5 641.2,150.7 644.4,165.9 647.6,175.9 650.8,163.2 654.0,157.0 657.3,190.5 660.5,206.3 663.7,195.5 666.9,229.7 670.1,179.3 673.3,216.1 676.5,208.5 679.8,202.9 683.0,222.8 686.2,239.7 689.4,199.1 692.6,178.3 695.8,222.5 699.1,216.8 702.3,239.6 705.5,204.4 708.7,216.4 711.9,258.5 715.1,225.4 718.4,205.1 721.6,230.9 724.8,220.7 728.0,215.7 731.2,214.4 734.4,213.2 737.6,237.9 740.9,217.6 744.1,220.9 747.3,232.2 750.5,213.7 753.7,234.1 756.9,228.4 760.2,226.8 763.4,251.2 766.6,250.7 769.8,231.8 773.0,240.4 776.2,251.6 779.5,243.7 782.7,251.5 785.9,221.4 789.1,276.3 792.3,233.1 795.5,220.8 798.7,210.1 802.0,227.9 805.2,226.0 808.4,206.3 811.6,212.5 814.8,177.7 818.0,188.4 821.3,175.0 824.5,165.8 827.7,150.1 830.9,138.7 834.1,110.0 837.3,129.1 840.5,125.4 843.8,147.7 847.0,109.9 850.2,104.2 853.4,82.8 856.6,88.8 859.8,109.4 863.1,103.8 866.3,99.8 869.5,100.7 872.7,89.2 875.9,80.1 879.1,82.6 882.4,98.0 885.6,107.9 888.8,116.9 892.0,106.8" fill="none" stroke="#16a34a" stroke-width="2.0" stroke-linejoin="round" stroke-linecap="round"/>
<line x1="72" y1="325" x2="96" y2="325" stroke="#16a34a" stroke-width="3"/>
<text x="103" y="329" font-family="Arial, sans-serif" font-size="12" fill="#111827">x2 发电裕度</text>
<text x="72" y="346" font-family="Arial, sans-serif" font-size="11" fill="#6b7280">row id: scenario_first_pilot::grid2op::line_disconnection::000::grid_line_disconnection_counterfactual_risk</text>
</svg>