<svg xmlns="http://www.w3.org/2000/svg" width="920" height="360" viewBox="0 0 920 360">
<rect width="100%" height="100%" fill="#ffffff"/>
<text x="72" y="28" font-family="Arial, sans-serif" font-size="18" font-weight="700" fill="#111827">grid2op / grid_counterfactual_overload_exposure</text>
<text x="72" y="49" font-family="Arial, sans-serif" font-size="12" fill="#6b7280">source: real_trace_artifact; per-variable min-max normalized for display</text>
<line x1="72" y1="60.0" x2="890" y2="60.0" stroke="#e5e7eb" stroke-width="1"/>
<line x1="72" y1="115.5" x2="890" y2="115.5" stroke="#e5e7eb" stroke-width="1"/>
<line x1="72" y1="171.0" x2="890" y2="171.0" stroke="#e5e7eb" stroke-width="1"/>
<line x1="72" y1="226.5" x2="890" y2="226.5" stroke="#e5e7eb" stroke-width="1"/>
<line x1="72" y1="282.0" x2="890" y2="282.0" stroke="#e5e7eb" stroke-width="1"/>
<line x1="72" y1="60" x2="72" y2="282" stroke="#374151" stroke-width="1.2"/>
<line x1="72" y1="282" x2="890" y2="282" stroke="#374151" stroke-width="1.2"/>
<polyline points="72.0,146.1 73.6,149.3 75.2,143.6 76.8,143.4 78.4,144.8 80.0,136.6 81.6,134.0 83.2,145.7 84.8,147.4 86.4,158.5 88.0,146.6 89.6,150.9 91.2,163.6 92.8,159.2 94.4,160.9 96.0,149.0 97.6,153.2 99.2,154.3 100.8,143.7 102.4,160.2 104.0,139.4 105.6,152.1 107.2,153.3 108.8,152.0 110.4,159.1 112.0,157.4 113.6,155.5 115.2,163.0 116.8,158.2 118.4,157.7 120.0,157.3 121.6,161.5 123.2,165.2 124.8,156.5 126.4,164.2 128.0,156.0 129.6,164.3 131.2,162.9 132.8,169.6 134.4,170.0 136.0,169.0 137.6,163.4 139.2,170.8 140.8,170.5 142.4,170.5 144.0,166.5 145.6,166.0 147.2,161.2 148.8,158.1 150.4,159.4 152.0,163.1 153.6,155.3 155.2,167.1 156.8,146.3 158.4,158.8 160.0,163.5 161.6,153.8 163.2,163.9 164.8,162.2 166.4,165.3 168.0,174.4 169.6,161.8 171.2,163.4 172.8,174.7 174.5,178.7 176.1,175.7 177.7,181.6 179.3,183.6 180.9,187.6 182.5,185.4 184.1,189.4 185.7,195.5 187.3,201.6 188.9,200.5 190.5,197.1 192.1,212.1 193.7,222.4 195.3,210.2 196.9,219.0 198.5,225.7 200.1,225.5 201.7,221.0 203.3,225.7 204.9,224.6 206.5,234.7 208.1,222.8 209.7,237.2 211.3,231.3 212.9,235.0 214.5,247.1 216.1,227.4 217.7,247.4 219.3,235.3 220.9,227.9 222.5,239.5 224.1,234.5 225.7,240.7 227.3,234.4 228.9,231.7 230.5,223.5 232.1,226.4 233.7,220.7 235.3,219.8 236.9,218.1 238.5,216.0 240.1,218.2 241.7,218.4 243.3,227.6 244.9,197.9 246.5,197.8 248.1,198.5 249.7,189.9 251.3,186.6 252.9,163.0 254.5,188.1 256.1,169.4 257.7,158.8 259.3,155.6 260.9,144.8 262.5,158.7 264.1,157.0 265.7,155.0 267.3,144.3 268.9,144.6 270.5,153.7 272.1,148.1 273.7,141.5 275.3,152.3 276.9,138.8 278.5,152.2 280.1,168.0 281.7,158.4 283.3,165.9 284.9,144.3 286.5,169.4 288.1,176.5 289.7,170.4 291.3,166.7 292.9,169.3 294.5,171.3 296.1,178.7 297.7,176.2 299.3,189.1 300.9,198.9 302.5,193.7 304.1,202.0 305.7,196.0 307.3,209.0 308.9,210.7 310.5,217.2 312.1,201.3 313.7,217.2 315.3,210.2 316.9,226.2 318.5,237.0 320.1,239.1 321.7,237.9 323.3,244.9 324.9,253.5 326.5,252.5 328.1,255.9 329.7,245.1 331.3,257.7 332.9,260.7 334.5,253.8 336.1,261.6 337.7,266.0 339.3,268.6 340.9,275.7 342.5,264.8 344.1,256.1 345.7,265.0 347.3,272.1 348.9,276.7 350.5,258.6 352.1,264.0 353.7,258.4 355.3,255.8 356.9,272.9 358.5,264.6 360.1,269.8 361.7,269.2 363.3,270.4 364.9,282.0 366.5,267.0 368.1,257.6 369.7,274.1 371.3,253.4 372.9,252.4 374.5,247.4 376.1,253.6 377.7,255.2 379.4,251.0 381.0,257.0 382.6,251.0 384.2,246.7 385.8,254.9 387.4,251.0 389.0,242.1 390.6,228.6 392.2,240.8 393.8,239.7 395.4,228.3 397.0,225.7 398.6,227.3 400.2,237.9 401.8,231.5 403.4,221.4 405.0,229.7 406.6,216.5 408.2,231.6 409.8,211.5 411.4,215.0 413.0,218.3 414.6,218.1 416.2,220.0 417.8,213.5 419.4,200.3 421.0,198.4 422.6,204.0 424.2,208.3 425.8,203.3 427.4,212.7 429.0,209.4 430.6,197.3 432.2,212.5 433.8,212.9 435.4,209.3 437.0,207.6 438.6,197.4 440.2,224.1 441.8,227.5 443.4,227.5 445.0,216.2 446.6,220.6 448.2,215.7 449.8,217.6 451.4,228.8 453.0,227.9 454.6,227.2 456.2,231.6 457.8,229.7 459.4,218.5 461.0,224.3 462.6,230.8 464.2,220.5 465.8,222.7 467.4,208.7 469.0,199.0 470.6,206.8 472.2,178.9 473.8,192.2 475.4,190.9 477.0,187.0 478.6,188.3 480.2,175.8 481.8,169.8 483.4,175.7 485.0,186.0 486.6,151.1 488.2,168.6 489.8,161.3 491.4,148.9 493.0,149.9 494.6,166.6 496.2,160.5 497.8,160.1 499.4,150.8 501.0,164.0 502.6,181.4 504.2,147.0 505.8,170.3 507.4,168.3 509.0,180.9 510.6,180.1 512.2,185.4 513.8,168.9 515.4,194.9 517.0,180.7 518.6,191.3 520.2,180.9 521.8,199.8 523.4,189.3 525.0,194.2 526.6,199.4 528.2,218.1 529.8,216.4 531.4,218.8 533.0,213.7 534.6,226.5 536.2,235.9 537.8,228.9 539.4,232.4 541.0,225.8 542.6,236.9 544.2,237.2 545.8,247.5 547.4,238.8 549.0,235.5 550.6,233.0 552.2,255.7 553.8,250.2 555.4,241.1 557.0,236.8 558.6,231.5 560.2,226.1 561.8,220.1 563.4,214.3 565.0,210.1 566.6,215.6 568.2,204.2 569.8,199.2 571.4,201.4 573.0,208.5 574.6,212.3 576.2,206.0 577.8,213.2 579.4,208.8 581.0,207.3 582.6,207.3 584.3,205.1 585.9,202.7 587.5,186.1 589.1,199.8 590.7,206.4 592.3,207.3 593.9,209.9 595.5,215.6 597.1,225.5 598.7,227.7 600.3,223.7 601.9,217.6 603.5,227.2 605.1,223.4 606.7,237.4 608.3,239.2 609.9,227.4 611.5,220.0 613.1,226.9 614.7,226.2 616.3,235.8 617.9,224.2 619.5,230.3 621.1,238.7 622.7,236.6 624.3,233.1 625.9,224.2 627.5,231.4 629.1,227.3 630.7,241.1 632.3,234.7 633.9,230.3 635.5,242.4 637.1,228.3 638.7,247.7 640.3,240.2 641.9,237.9 643.5,239.0 645.1,251.0 646.7,251.5 648.3,250.9 649.9,243.2 651.5,238.8 653.1,243.2 654.7,240.9 656.3,248.6 657.9,239.5 659.5,246.5 661.1,250.5 662.7,247.1 664.3,240.3 665.9,248.4 667.5,241.8 669.1,236.9 670.7,240.1 672.3,237.4 673.9,235.8 675.5,240.5 677.1,252.6 678.7,232.8 680.3,228.0 681.9,232.1 683.5,216.1 685.1,222.1 686.7,218.4 688.3,217.9 689.9,214.5 691.5,209.7 693.1,210.1 694.7,208.3 696.3,204.5 697.9,206.2 699.5,200.7 701.1,199.4 702.7,180.9 704.3,186.4 705.9,170.6 707.5,170.1 709.1,154.0 710.7,158.8 712.3,141.7 713.9,150.6 715.5,142.1 717.1,139.9 718.7,126.4 720.3,104.5 721.9,97.0 723.5,118.2 725.1,107.1 726.7,93.0 728.3,84.5 729.9,101.9 731.5,89.0 733.1,83.8 734.7,91.4 736.3,93.8 737.9,84.2 739.5,88.7 741.1,91.9 742.7,77.1 744.3,76.2 745.9,83.1 747.5,92.7 749.1,93.9 750.7,67.0 752.3,85.8 753.9,83.9 755.5,81.7 757.1,74.6 758.7,71.5 760.3,80.3 761.9,82.1 763.5,94.7 765.1,92.0 766.7,98.9 768.3,96.0 769.9,83.1 771.5,84.9 773.1,77.3 774.7,84.9 776.3,80.9 777.9,87.8 779.5,89.7 781.1,99.3 782.7,96.9 784.3,87.3 785.9,88.8 787.5,99.4 789.2,85.0 790.8,90.5 792.4,115.0 794.0,104.4 795.6,107.8 797.2,101.0 798.8,110.4 800.4,112.6 802.0,111.1 803.6,114.1 805.2,124.3 806.8,129.5 808.4,101.0 810.0,113.9 811.6,123.3 813.2,115.5 814.8,128.5 816.4,127.6 818.0,124.0 819.6,131.5 821.2,130.1 822.8,125.1 824.4,137.9 826.0,134.5 827.6,125.7 829.2,135.0 830.8,133.1 832.4,131.0 834.0,141.9 835.6,138.7 837.2,137.5 838.8,137.5 840.4,133.8 842.0,141.4 843.6,135.6 845.2,137.6 846.8,134.3 848.4,136.8 850.0,126.9 851.6,123.8 853.2,129.2 854.8,118.0 856.4,130.2 858.0,116.1 859.6,117.2 861.2,113.2 862.8,120.9 864.4,109.9 866.0,98.9 867.6,100.9 869.2,96.6 870.8,78.5 872.4,87.3 874.0,77.9 875.6,84.1 877.2,91.3 878.8,65.6 880.4,66.1 882.0,70.5 883.6,65.9 885.2,70.9 886.8,77.4 888.4,60.0 890.0,66.6" fill="none" stroke="#2563eb" stroke-width="2" stroke-linejoin="round" stroke-linecap="round"/>
<line x1="72" y1="306" x2="96" y2="306" stroke="#2563eb" stroke-width="3"/>
<text x="103" y="310" font-family="Arial, sans-serif" font-size="12" fill="#111827">x0 最大线路负载压力</text>
<polyline points="72.0,282.0 73.6,282.0 75.2,282.0 76.8,282.0 78.4,282.0 80.0,282.0 81.6,282.0 83.2,282.0 84.8,282.0 86.4,282.0 88.0,282.0 89.6,282.0 91.2,282.0 92.8,282.0 94.4,282.0 96.0,282.0 97.6,282.0 99.2,282.0 100.8,282.0 102.4,282.0 104.0,282.0 105.6,282.0 107.2,282.0 108.8,282.0 110.4,282.0 112.0,282.0 113.6,282.0 115.2,282.0 116.8,282.0 118.4,282.0 120.0,282.0 121.6,282.0 123.2,282.0 124.8,282.0 126.4,282.0 128.0,282.0 129.6,282.0 131.2,282.0 132.8,282.0 134.4,282.0 136.0,282.0 137.6,282.0 139.2,282.0 140.8,282.0 142.4,282.0 144.0,282.0 145.6,282.0 147.2,282.0 148.8,282.0 150.4,282.0 152.0,282.0 153.6,282.0 155.2,282.0 156.8,282.0 158.4,282.0 160.0,282.0 161.6,282.0 163.2,282.0 164.8,282.0 166.4,282.0 168.0,282.0 169.6,282.0 171.2,282.0 172.8,282.0 174.5,282.0 176.1,282.0 177.7,282.0 179.3,282.0 180.9,282.0 182.5,282.0 184.1,282.0 185.7,282.0 187.3,282.0 188.9,282.0 190.5,282.0 192.1,282.0 193.7,282.0 195.3,282.0 196.9,282.0 198.5,282.0 200.1,282.0 201.7,282.0 203.3,282.0 204.9,282.0 206.5,282.0 208.1,282.0 209.7,282.0 211.3,282.0 212.9,282.0 214.5,282.0 216.1,282.0 217.7,282.0 219.3,282.0 220.9,282.0 222.5,282.0 224.1,282.0 225.7,282.0 227.3,282.0 228.9,282.0 230.5,282.0 232.1,282.0 233.7,282.0 235.3,282.0 236.9,282.0 238.5,282.0 240.1,282.0 241.7,282.0 243.3,282.0 244.9,282.0 246.5,282.0 248.1,282.0 249.7,282.0 251.3,282.0 252.9,282.0 254.5,282.0 256.1,282.0 257.7,282.0 259.3,282.0 260.9,282.0 262.5,282.0 264.1,282.0 265.7,282.0 267.3,282.0 268.9,282.0 270.5,282.0 272.1,282.0 273.7,282.0 275.3,282.0 276.9,282.0 278.5,282.0 280.1,282.0 281.7,282.0 283.3,282.0 284.9,282.0 286.5,282.0 288.1,282.0 289.7,282.0 291.3,282.0 292.9,282.0 294.5,282.0 296.1,282.0 297.7,282.0 299.3,282.0 300.9,282.0 302.5,282.0 304.1,282.0 305.7,282.0 307.3,282.0 308.9,282.0 310.5,282.0 312.1,282.0 313.7,282.0 315.3,282.0 316.9,282.0 318.5,282.0 320.1,282.0 321.7,282.0 323.3,282.0 324.9,282.0 326.5,282.0 328.1,282.0 329.7,282.0 331.3,282.0 332.9,282.0 334.5,282.0 336.1,282.0 337.7,282.0 339.3,282.0 340.9,282.0 342.5,282.0 344.1,282.0 345.7,282.0 347.3,282.0 348.9,282.0 350.5,282.0 352.1,282.0 353.7,282.0 355.3,282.0 356.9,282.0 358.5,282.0 360.1,282.0 361.7,282.0 363.3,282.0 364.9,282.0 366.5,282.0 368.1,282.0 369.7,282.0 371.3,282.0 372.9,282.0 374.5,282.0 376.1,282.0 377.7,282.0 379.4,282.0 381.0,282.0 382.6,282.0 384.2,282.0 385.8,282.0 387.4,282.0 389.0,282.0 390.6,282.0 392.2,282.0 393.8,282.0 395.4,282.0 397.0,282.0 398.6,282.0 400.2,282.0 401.8,282.0 403.4,282.0 405.0,282.0 406.6,282.0 408.2,282.0 409.8,282.0 411.4,282.0 413.0,282.0 414.6,282.0 416.2,282.0 417.8,282.0 419.4,282.0 421.0,282.0 422.6,282.0 424.2,282.0 425.8,282.0 427.4,282.0 429.0,282.0 430.6,282.0 432.2,282.0 433.8,282.0 435.4,282.0 437.0,282.0 438.6,282.0 440.2,282.0 441.8,282.0 443.4,282.0 445.0,282.0 446.6,282.0 448.2,282.0 449.8,282.0 451.4,282.0 453.0,282.0 454.6,282.0 456.2,282.0 457.8,282.0 459.4,282.0 461.0,282.0 462.6,282.0 464.2,282.0 465.8,282.0 467.4,282.0 469.0,282.0 470.6,282.0 472.2,282.0 473.8,282.0 475.4,282.0 477.0,282.0 478.6,282.0 480.2,282.0 481.8,282.0 483.4,282.0 485.0,282.0 486.6,282.0 488.2,282.0 489.8,282.0 491.4,282.0 493.0,282.0 494.6,282.0 496.2,282.0 497.8,282.0 499.4,282.0 501.0,282.0 502.6,282.0 504.2,282.0 505.8,282.0 507.4,282.0 509.0,282.0 510.6,282.0 512.2,282.0 513.8,282.0 515.4,282.0 517.0,282.0 518.6,282.0 520.2,282.0 521.8,282.0 523.4,282.0 525.0,282.0 526.6,282.0 528.2,282.0 529.8,282.0 531.4,282.0 533.0,282.0 534.6,282.0 536.2,282.0 537.8,282.0 539.4,282.0 541.0,282.0 542.6,282.0 544.2,282.0 545.8,282.0 547.4,282.0 549.0,282.0 550.6,282.0 552.2,282.0 553.8,282.0 555.4,282.0 557.0,282.0 558.6,282.0 560.2,282.0 561.8,282.0 563.4,282.0 565.0,282.0 566.6,282.0 568.2,282.0 569.8,282.0 571.4,282.0 573.0,282.0 574.6,282.0 576.2,282.0 577.8,282.0 579.4,282.0 581.0,282.0 582.6,282.0 584.3,282.0 585.9,282.0 587.5,282.0 589.1,282.0 590.7,282.0 592.3,282.0 593.9,282.0 595.5,282.0 597.1,282.0 598.7,282.0 600.3,282.0 601.9,282.0 603.5,282.0 605.1,282.0 606.7,282.0 608.3,282.0 609.9,282.0 611.5,282.0 613.1,282.0 614.7,282.0 616.3,282.0 617.9,282.0 619.5,282.0 621.1,282.0 622.7,282.0 624.3,282.0 625.9,282.0 627.5,282.0 629.1,282.0 630.7,282.0 632.3,282.0 633.9,282.0 635.5,282.0 637.1,282.0 638.7,282.0 640.3,282.0 641.9,282.0 643.5,282.0 645.1,282.0 646.7,282.0 648.3,282.0 649.9,282.0 651.5,282.0 653.1,282.0 654.7,282.0 656.3,282.0 657.9,282.0 659.5,282.0 661.1,282.0 662.7,282.0 664.3,282.0 665.9,282.0 667.5,282.0 669.1,282.0 670.7,282.0 672.3,282.0 673.9,282.0 675.5,282.0 677.1,282.0 678.7,282.0 680.3,282.0 681.9,282.0 683.5,282.0 685.1,282.0 686.7,282.0 688.3,282.0 689.9,282.0 691.5,282.0 693.1,282.0 694.7,282.0 696.3,282.0 697.9,282.0 699.5,282.0 701.1,282.0 702.7,282.0 704.3,282.0 705.9,282.0 707.5,282.0 709.1,282.0 710.7,282.0 712.3,282.0 713.9,282.0 715.5,282.0 717.1,282.0 718.7,282.0 720.3,282.0 721.9,282.0 723.5,282.0 725.1,282.0 726.7,282.0 728.3,282.0 729.9,282.0 731.5,282.0 733.1,282.0 734.7,282.0 736.3,282.0 737.9,282.0 739.5,282.0 741.1,282.0 742.7,282.0 744.3,282.0 745.9,282.0 747.5,282.0 749.1,282.0 750.7,282.0 752.3,282.0 753.9,282.0 755.5,282.0 757.1,282.0 758.7,282.0 760.3,282.0 761.9,282.0 763.5,282.0 765.1,282.0 766.7,282.0 768.3,282.0 769.9,282.0 771.5,282.0 773.1,282.0 774.7,282.0 776.3,282.0 777.9,282.0 779.5,282.0 781.1,282.0 782.7,282.0 784.3,282.0 785.9,282.0 787.5,282.0 789.2,282.0 790.8,282.0 792.4,282.0 794.0,282.0 795.6,282.0 797.2,282.0 798.8,282.0 800.4,282.0 802.0,282.0 803.6,282.0 805.2,282.0 806.8,282.0 808.4,282.0 810.0,282.0 811.6,282.0 813.2,282.0 814.8,282.0 816.4,282.0 818.0,282.0 819.6,282.0 821.2,282.0 822.8,282.0 824.4,282.0 826.0,282.0 827.6,282.0 829.2,282.0 830.8,282.0 832.4,282.0 834.0,282.0 835.6,282.0 837.2,282.0 838.8,282.0 840.4,282.0 842.0,282.0 843.6,282.0 845.2,282.0 846.8,282.0 848.4,282.0 850.0,282.0 851.6,282.0 853.2,282.0 854.8,282.0 856.4,282.0 858.0,282.0 859.6,282.0 861.2,282.0 862.8,282.0 864.4,282.0 866.0,282.0 867.6,282.0 869.2,282.0 870.8,282.0 872.4,282.0 874.0,282.0 875.6,282.0 877.2,282.0 878.8,282.0 880.4,282.0 882.0,282.0 883.6,282.0 885.2,282.0 886.8,282.0 888.4,282.0 890.0,282.0" fill="none" stroke="#dc2626" stroke-width="2" stroke-linejoin="round" stroke-linecap="round"/>
<line x1="464" y1="306" x2="488" y2="306" stroke="#dc2626" stroke-width="3"/>
<text x="495" y="310" font-family="Arial, sans-serif" font-size="12" fill="#111827">x1 总需求</text>
<polyline points="72.0,192.1 73.6,204.8 75.2,201.1 76.8,196.8 78.4,195.0 80.0,185.8 81.6,189.3 83.2,204.2 84.8,199.0 86.4,216.7 88.0,204.2 89.6,201.3 91.2,218.4 92.8,210.7 94.4,219.7 96.0,194.6 97.6,200.7 99.2,192.5 100.8,184.0 102.4,186.2 104.0,180.7 105.6,191.0 107.2,187.8 108.8,185.0 110.4,196.0 112.0,193.1 113.6,185.6 115.2,191.6 116.8,190.2 118.4,192.0 120.0,179.5 121.6,188.4 123.2,189.0 124.8,190.2 126.4,192.5 128.0,194.3 129.6,197.8 131.2,201.2 132.8,206.8 134.4,207.7 136.0,209.8 137.6,207.2 139.2,216.6 140.8,217.2 142.4,224.9 144.0,218.0 145.6,224.5 147.2,216.4 148.8,216.4 150.4,220.8 152.0,218.8 153.6,213.2 155.2,224.7 156.8,209.9 158.4,218.3 160.0,222.0 161.6,216.9 163.2,222.3 164.8,219.5 166.4,228.4 168.0,235.1 169.6,221.2 171.2,221.1 172.8,234.3 174.5,241.0 176.1,234.7 177.7,242.4 179.3,244.6 180.9,249.2 182.5,250.5 184.1,247.7 185.7,252.8 187.3,258.0 188.9,256.9 190.5,253.4 192.1,265.0 193.7,276.2 195.3,264.5 196.9,266.8 198.5,272.1 200.1,274.6 201.7,270.2 203.3,272.9 204.9,272.7 206.5,279.0 208.1,269.2 209.7,277.0 211.3,276.4 212.9,272.5 214.5,282.0 216.1,270.3 217.7,280.7 219.3,271.1 220.9,266.4 222.5,269.7 224.1,270.4 225.7,271.5 227.3,262.4 228.9,259.8 230.5,253.5 232.1,251.9 233.7,249.4 235.3,247.4 236.9,245.1 238.5,236.9 240.1,239.2 241.7,234.6 243.3,237.1 244.9,210.7 246.5,213.6 248.1,209.2 249.7,198.2 251.3,198.8 252.9,173.2 254.5,197.5 256.1,179.3 257.7,164.0 259.3,160.2 260.9,145.3 262.5,158.8 264.1,149.4 265.7,155.0 267.3,131.8 268.9,138.2 270.5,139.9 272.1,139.2 273.7,131.6 275.3,133.4 276.9,126.1 278.5,131.2 280.1,149.2 281.7,134.4 283.3,142.9 284.9,112.1 286.5,140.3 288.1,152.0 289.7,145.8 291.3,129.6 292.9,141.7 294.5,141.4 296.1,149.7 297.7,144.7 299.3,150.7 300.9,160.5 302.5,158.5 304.1,163.0 305.7,153.1 307.3,164.4 308.9,161.2 310.5,169.0 312.1,148.0 313.7,165.0 315.3,162.4 316.9,176.0 318.5,185.7 320.1,188.1 321.7,183.9 323.3,184.5 324.9,193.5 326.5,193.8 328.1,199.4 329.7,183.7 331.3,192.6 332.9,191.2 334.5,191.2 336.1,198.1 337.7,203.8 339.3,201.1 340.9,211.2 342.5,201.8 344.1,183.9 345.7,195.3 347.3,204.7 348.9,202.7 350.5,191.2 352.1,194.5 353.7,190.2 355.3,189.4 356.9,195.9 358.5,200.0 360.1,197.2 361.7,200.5 363.3,202.9 364.9,205.2 366.5,203.0 368.1,192.1 369.7,204.7 371.3,195.0 372.9,189.7 374.5,183.0 376.1,191.7 377.7,196.8 379.4,189.8 381.0,205.6 382.6,199.5 384.2,195.5 385.8,201.5 387.4,203.8 389.0,193.6 390.6,187.0 392.2,194.3 393.8,196.0 395.4,186.1 397.0,183.6 398.6,192.7 400.2,204.1 401.8,188.8 403.4,185.9 405.0,194.8 406.6,186.3 408.2,196.5 409.8,189.9 411.4,184.4 413.0,193.8 414.6,189.8 416.2,194.0 417.8,191.4 419.4,179.2 421.0,177.8 422.6,191.7 424.2,193.2 425.8,185.1 427.4,197.9 429.0,182.6 430.6,181.1 432.2,192.4 433.8,196.4 435.4,190.0 437.0,190.1 438.6,176.5 440.2,199.7 441.8,200.6 443.4,203.2 445.0,198.5 446.6,196.0 448.2,188.8 449.8,197.7 451.4,206.4 453.0,200.6 454.6,197.7 456.2,203.9 457.8,199.2 459.4,184.0 461.0,193.6 462.6,203.5 464.2,186.7 465.8,189.6 467.4,170.3 469.0,162.6 470.6,170.2 472.2,145.1 473.8,161.5 475.4,159.7 477.0,154.0 478.6,152.5 480.2,138.7 481.8,128.8 483.4,134.3 485.0,142.8 486.6,116.4 488.2,122.4 489.8,119.1 491.4,96.9 493.0,91.3 494.6,119.3 496.2,108.6 497.8,111.1 499.4,101.7 501.0,119.3 502.6,125.7 504.2,99.4 505.8,125.7 507.4,118.1 509.0,133.2 510.6,135.9 512.2,141.2 513.8,142.1 515.4,155.1 517.0,147.5 518.6,155.5 520.2,151.9 521.8,170.6 523.4,161.6 525.0,165.8 526.6,175.0 528.2,191.0 529.8,193.9 531.4,196.9 533.0,186.7 534.6,200.5 536.2,209.3 537.8,207.6 539.4,206.6 541.0,202.8 542.6,213.0 544.2,215.4 545.8,224.9 547.4,223.6 549.0,222.2 550.6,219.4 552.2,238.1 553.8,231.8 555.4,221.5 557.0,219.0 558.6,211.1 560.2,205.7 561.8,192.9 563.4,187.1 565.0,182.4 566.6,190.7 568.2,180.6 569.8,183.5 571.4,173.9 573.0,192.6 574.6,194.4 576.2,188.4 577.8,192.6 579.4,193.6 581.0,186.0 582.6,188.2 584.3,192.4 585.9,187.6 587.5,169.3 589.1,191.2 590.7,190.2 592.3,198.0 593.9,200.9 595.5,209.7 597.1,217.3 598.7,222.7 600.3,222.6 601.9,220.8 603.5,226.5 605.1,224.7 606.7,235.8 608.3,240.3 609.9,233.8 611.5,226.1 613.1,233.0 614.7,228.4 616.3,232.7 617.9,226.2 619.5,237.6 621.1,238.5 622.7,238.5 624.3,234.8 625.9,226.8 627.5,236.2 629.1,229.9 630.7,247.0 632.3,241.0 633.9,238.8 635.5,247.7 637.1,239.6 638.7,250.0 640.3,251.6 641.9,247.7 643.5,253.0 645.1,263.4 646.7,263.2 648.3,263.4 649.9,258.3 651.5,255.1 653.1,257.0 654.7,256.9 656.3,258.6 657.9,256.2 659.5,262.4 661.1,267.8 662.7,265.8 664.3,259.9 665.9,265.3 667.5,263.2 669.1,258.6 670.7,264.5 672.3,263.1 673.9,258.5 675.5,266.6 677.1,271.2 678.7,260.0 680.3,252.2 681.9,257.6 683.5,245.3 685.1,246.1 686.7,242.0 688.3,243.1 689.9,236.8 691.5,238.4 693.1,231.7 694.7,233.7 696.3,228.4 697.9,228.5 699.5,224.5 701.1,219.4 702.7,200.9 704.3,203.5 705.9,187.3 707.5,183.7 709.1,166.7 710.7,172.3 712.3,158.4 713.9,159.0 715.5,153.8 717.1,151.9 718.7,139.7 720.3,111.4 721.9,99.9 723.5,127.2 725.1,107.5 726.7,92.5 728.3,89.3 729.9,96.1 731.5,90.3 733.1,82.7 734.7,97.6 736.3,101.5 737.9,80.4 739.5,84.1 741.1,83.2 742.7,67.3 744.3,71.0 745.9,78.0 747.5,90.2 749.1,93.2 750.7,60.0 752.3,80.4 753.9,78.9 755.5,77.1 757.1,69.3 758.7,60.9 760.3,82.5 761.9,88.0 763.5,98.2 765.1,86.5 766.7,98.1 768.3,96.4 769.9,81.9 771.5,84.5 773.1,72.8 774.7,87.7 776.3,78.9 777.9,84.5 779.5,88.5 781.1,101.0 782.7,96.7 784.3,80.2 785.9,87.3 787.5,98.4 789.2,86.6 790.8,91.1 792.4,116.6 794.0,97.5 795.6,105.0 797.2,100.1 798.8,99.5 800.4,111.1 802.0,110.2 803.6,107.0 805.2,113.4 806.8,111.3 808.4,90.9 810.0,99.1 811.6,119.5 813.2,108.2 814.8,119.9 816.4,118.3 818.0,114.1 819.6,122.2 821.2,123.6 822.8,115.5 824.4,128.7 826.0,128.2 827.6,122.1 829.2,129.1 830.8,124.5 832.4,127.6 834.0,134.4 835.6,142.8 837.2,134.3 838.8,134.2 840.4,129.1 842.0,143.5 843.6,135.3 845.2,148.5 846.8,143.1 848.4,136.2 850.0,131.7 851.6,133.2 853.2,134.3 854.8,134.9 856.4,146.2 858.0,127.8 859.6,130.3 861.2,124.8 862.8,137.8 864.4,130.9 866.0,125.8 867.6,129.3 869.2,129.0 870.8,114.4 872.4,123.7 874.0,117.2 875.6,127.3 877.2,126.8 878.8,102.5 880.4,106.4 882.0,108.6 883.6,109.4 885.2,120.0 886.8,124.2 888.4,106.5 890.0,115.7" fill="none" stroke="#16a34a" stroke-width="2" stroke-linejoin="round" stroke-linecap="round"/>
<line x1="72" y1="324" x2="96" y2="324" stroke="#16a34a" stroke-width="3"/>
<text x="103" y="328" font-family="Arial, sans-serif" font-size="12" fill="#111827">x2 发电裕度/电网上下文</text>
<text x="72" y="346" font-family="Arial, sans-serif" font-size="11" fill="#6b7280">row id: real_source_smoke::grid2op::01::grid_counterfactual_overload_exposure::grid2op_broad_cf::h1024_c-1_t256_line1::post257_769::grid_c</text>
</svg>